<svg height="512" viewBox="0 0 64 64" width="512" xmlns="http://www.w3.org/2000/svg"><g id="Blue"><path d="m41 51v10h-4a4 4 0 0 1 -4-4v-28a4 4 0 0 1 4-4h16a4 4 0 0 1 4 4v24h-2l-2-2z" fill="#cdeef6"/><path d="m33 29h24v18h-24z" fill="#fff"/><path d="m11 47v-2h-6v2l-2 2v12h10v-12z" fill="#cdeef6"/><path d="m37 21h16v4h-16z" fill="#7cb8eb"/><path d="m35 15h20v6h-20z" fill="#7cb8eb"/><path d="m38 15h2v3h-2z" fill="#4f83d1"/><path d="m42 15h2v3h-2z" fill="#4f83d1"/><path d="m46 15h2v3h-2z" fill="#4f83d1"/><path d="m50 15h2v3h-2z" fill="#4f83d1"/><path d="m50 36h-3v-3h-4v3h-3v4h3v3h4v-3h3z" fill="#7cb8eb"/><path d="m19 20h8v26h-8z" fill="#cdeef6" transform="matrix(-1 0 0 -1 46 66)"/><path d="m22 2h2v10h-2z" fill="#4f83d1"/><path d="m21 12h4a0 0 0 0 1 0 0v2a2 2 0 0 1 -2 2 2 2 0 0 1 -2-2v-2a0 0 0 0 1 0 0z" fill="#cdeef6" transform="matrix(-1 0 0 -1 46 28)"/><path d="m21 16h4l2 4h-8z" fill="#7cb8eb"/><path d="m17 46h12v4h-12z" fill="#7cb8eb" transform="matrix(-1 0 0 -1 46 96)"/><rect fill="#cdeef6" height="4" rx="2" transform="matrix(-1 0 0 -1 46 118)" width="10" x="18" y="57"/><path d="m21 50h4v7h-4z" fill="#cdeef6" transform="matrix(-1 0 0 -1 46 107)"/><path d="m19 32h3v2h-3z" fill="#4f83d1"/><path d="m19 28h3v2h-3z" fill="#4f83d1"/><path d="m19 40h3v2h-3z" fill="#4f83d1"/><path d="m19 36h3v2h-3z" fill="#4f83d1"/><path d="m19 24h3v2h-3z" fill="#4f83d1"/><path d="m3 41h10v4h-10z" fill="#7cb8eb"/><path d="m3 51h10v6h-10z" fill="#fff"/><path d="m54 54h10v4h-10z" fill="#cdeef6" transform="matrix(0 1 -1 0 115 -3)"/><path d="m55 59h2v-6h-2l-2-2h-12v10h12z" fill="#7cb8eb"/><path d="m43 53h10v6h-10z" fill="#fff" transform="matrix(0 1 -1 0 104 8)"/><g fill="#4f83d1"><path d="m36 56h2v2h-2z"/><path d="m36 52h2v2h-2z"/><path d="m40 41h2v2a1 1 0 0 0 1 1h4a1 1 0 0 0 1-1v-2h2a1 1 0 0 0 1-1v-4a1 1 0 0 0 -1-1h-2v-2a1 1 0 0 0 -1-1h-4a1 1 0 0 0 -1 1v2h-2a1 1 0 0 0 -1 1v4a1 1 0 0 0 1 1zm1-4h2a1 1 0 0 0 1-1v-2h2v2a1 1 0 0 0 1 1h2v2h-2a1 1 0 0 0 -1 1v2h-2v-2a1 1 0 0 0 -1-1h-2z"/><path d="m17 51h3v5a3 3 0 0 0 0 6h6a3 3 0 0 0 0-6v-5h3a1 1 0 0 0 1-1v-4a1 1 0 0 0 -1-1h-1v-25a.978.978 0 0 0 -.115-.443l-1.885-3.793v-1.764a3 3 0 0 0 -2-2.816v-9.184h-2v9.184a3 3 0 0 0 -2 2.816v1.764l-1.885 3.793a.978.978 0 0 0 -.115.443v25h-1a1 1 0 0 0 -1 1v4a1 1 0 0 0 1 1zm10 8a1 1 0 0 1 -1 1h-6a1 1 0 0 1 0-2h6a1 1 0 0 1 1 1zm-5-3v-5h2v5zm0-42a1 1 0 0 1 2 0v1h-2zm-.382 3h2.764l1 2h-4.764zm-1.618 25h2v-2h-2v-2h2v-2h-2v-2h2v-2h-2v-2h2v-2h-2v-2h2v-2h-2v-3h6v24h-6zm-2 5h10v2h-10z"/><path d="m3 62h10a1 1 0 0 0 1-1v-12a1 1 0 0 0 -.293-.707l-1.707-1.707v-.586h1a1 1 0 0 0 1-1v-4a1 1 0 0 0 -1-1h-10a1 1 0 0 0 -1 1v4a1 1 0 0 0 1 1h1v.586l-1.707 1.707a1 1 0 0 0 -.293.707v12a1 1 0 0 0 1 1zm1-20h8v2h-8zm0 7.414 1.707-1.707a1 1 0 0 0 .293-.707v-1h4v1a1 1 0 0 0 .293.707l1.707 1.707v.586h-8zm0 2.586h8v4h-8zm0 6h8v2h-8z"/><path d="m61 50h-3v-21a5.009 5.009 0 0 0 -4-4.9v-2.1h1a1 1 0 0 0 1-1v-6a1 1 0 0 0 -1-1h-20a1 1 0 0 0 -1 1v6a1 1 0 0 0 1 1h1v2.1a5.009 5.009 0 0 0 -4 4.9v28a5.006 5.006 0 0 0 5 5h16a1 1 0 0 0 .707-.293l1.707-1.707h.586v1a1 1 0 0 0 1 1h4a1 1 0 0 0 1-1v-10a1 1 0 0 0 -1-1zm-25-34h2v2h2v-2h2v2h2v-2h2v2h2v-2h2v2h2v-2h2v4h-18zm16 6v2h-14v-2zm-15 4h16a3 3 0 0 1 2.816 2h-21.632a3 3 0 0 1 2.816-2zm7 34h-2v-8h2zm6 0h-4v-8h4zm6-2h-1a1 1 0 0 0 -.707.293l-1.707 1.707h-.586v-8h.586l1.707 1.707a1 1 0 0 0 .707.293h1zm0-6h-.586l-1.707-1.707a1 1 0 0 0 -.707-.293h-12a1 1 0 0 0 -1 1v9h-3a3 3 0 0 1 -3-3v-9h22zm0-6h-22v-16h22zm4 14h-2v-8h2z"/><path d="m36 56h2v2h-2z"/><path d="m36 52h2v2h-2z"/></g></g></svg>